<svg width="281" height="66" viewBox="0 0 281 66" fill="none" xmlns="http://www.w3.org/2000/svg">
<circle cx="30" cy="30" r="28.5" stroke="url(#paint0_linear_26_2)" stroke-width="3"/>
<mask id="mask0_26_2" style="mask-type:alpha" maskUnits="userSpaceOnUse" x="8" y="20" width="44" height="20">
<path fill-rule="evenodd" clip-rule="evenodd" d="M26.5 20C27.3284 20 28 20.6716 28 21.5V38.5C28 39.3284 27.3284 40 26.5 40C25.6716 40 25 39.3284 25 38.5V21.5C25 20.6716 25.6716 20 26.5 20ZM20.5 24C21.3284 24 22 24.6716 22 25.5V34.5C22 35.3284 21.3284 36 20.5 36C19.6716 36 19 35.3284 19 34.5V25.5C19 24.6716 19.6716 24 20.5 24ZM44.4382 26.9844C45.2665 26.9758 45.945 27.6404 45.9536 28.4688L45.995 32.4685C46.0036 33.2969 45.339 33.9754 44.5106 33.984C43.6822 33.9926 43.0037 33.3281 42.9952 32.4997L42.9538 28.4999C42.9452 27.6715 43.6098 26.993 44.4382 26.9844ZM11 28.5C11 27.6716 10.3284 27 9.5 27C8.67157 27 8 27.6716 8 28.5V32.5C8 33.3284 8.67157 34 9.5 34C10.3284 34 11 33.3284 11 32.5V28.5ZM17 28.5C17 27.6716 16.3284 27 15.5 27C14.6716 27 14 27.6716 14 28.5V32.5C14 33.3284 14.6716 34 15.5 34C16.3284 34 17 33.3284 17 32.5V28.5ZM51.9429 28.4688C51.9343 27.6404 51.2558 26.9758 50.4274 26.9844C49.599 26.993 48.9344 27.6715 48.943 28.4999L48.9844 32.4997C48.993 33.3281 49.6715 33.9926 50.4999 33.984C51.3283 33.9754 51.9928 33.2969 51.9843 32.4685L51.9429 28.4688ZM41 25.5C41 24.6716 40.3284 24 39.5 24C38.6716 24 38 24.6716 38 25.5V34.5C38 35.3284 38.6716 36 39.5 36C40.3284 36 41 35.3284 41 34.5V25.5ZM34 21.5C34 20.6716 33.3284 20 32.5 20C31.6716 20 31 20.6716 31 21.5V38.5C31 39.3284 31.6716 40 32.5 40C33.3284 40 34 39.3284 34 38.5V21.5Z" fill="black"/>
</mask>
<g mask="url(#mask0_26_2)">
<rect x="3" y="18" width="54" height="23" fill="url(#paint1_linear_26_2)"/>
</g>
<path d="M81.5739 24.6364C81.446 23.5568 80.9276 22.7188 80.0185 22.1222C79.1094 21.5256 77.9943 21.2273 76.6733 21.2273C75.7074 21.2273 74.8622 21.3835 74.1378 21.696C73.4205 22.0085 72.8594 22.4382 72.4545 22.9851C72.0568 23.532 71.858 24.1534 71.858 24.8494C71.858 25.4318 71.9964 25.9325 72.2734 26.3516C72.5575 26.7635 72.9197 27.108 73.3601 27.3849C73.8004 27.6548 74.2621 27.8786 74.745 28.0561C75.228 28.2266 75.6719 28.3651 76.0767 28.4716L78.2926 29.0682C78.8608 29.2173 79.4929 29.4233 80.1889 29.6861C80.892 29.9489 81.5632 30.3075 82.2024 30.7621C82.8487 31.2095 83.3814 31.7848 83.8004 32.4879C84.2195 33.1911 84.429 34.054 84.429 35.0767C84.429 36.2557 84.12 37.321 83.5021 38.2727C82.8913 39.2244 81.9964 39.9808 80.8175 40.5419C79.6456 41.103 78.2216 41.3835 76.5455 41.3835C74.983 41.3835 73.63 41.1314 72.4865 40.6271C71.3501 40.1229 70.4553 39.4197 69.8018 38.5178C69.1555 37.6158 68.7898 36.5682 68.7045 35.375H71.4318C71.5028 36.1989 71.7798 36.8807 72.2628 37.4205C72.7528 37.9531 73.3707 38.3509 74.1165 38.6136C74.8693 38.8693 75.679 38.9972 76.5455 38.9972C77.554 38.9972 78.4595 38.8338 79.2621 38.5071C80.0646 38.1733 80.7003 37.7116 81.169 37.1222C81.6378 36.5256 81.8722 35.8295 81.8722 35.0341C81.8722 34.3097 81.6697 33.7202 81.2649 33.2656C80.8601 32.8111 80.3274 32.4418 79.6669 32.1577C79.0064 31.8736 78.2926 31.625 77.5256 31.4119L74.8409 30.6449C73.1364 30.1548 71.7869 29.4553 70.7926 28.5462C69.7983 27.6371 69.3011 26.4474 69.3011 24.9773C69.3011 23.7557 69.6314 22.6903 70.2919 21.7812C70.9595 20.8651 71.8544 20.1548 72.9766 19.6506C74.1058 19.1392 75.3665 18.8835 76.7585 18.8835C78.1648 18.8835 79.4148 19.1357 80.5085 19.6399C81.6023 20.1371 82.4688 20.8189 83.108 21.6854C83.7543 22.5518 84.0952 23.5355 84.1307 24.6364H81.5739ZM95.0797 41.3409C93.6025 41.3409 92.3063 40.9893 91.1912 40.2862C90.0833 39.5831 89.2168 38.5994 88.5918 37.3352C87.9739 36.071 87.665 34.5937 87.665 32.9034C87.665 31.1989 87.9739 29.7109 88.5918 28.4396C89.2168 27.1683 90.0833 26.1811 91.1912 25.478C92.3063 24.7749 93.6025 24.4233 95.0797 24.4233C96.557 24.4233 97.8496 24.7749 98.9576 25.478C100.073 26.1811 100.939 27.1683 101.557 28.4396C102.182 29.7109 102.494 31.1989 102.494 32.9034C102.494 34.5937 102.182 36.071 101.557 37.3352C100.939 38.5994 100.073 39.5831 98.9576 40.2862C97.8496 40.9893 96.557 41.3409 95.0797 41.3409ZM95.0797 39.0824C96.2019 39.0824 97.1252 38.7947 97.8496 38.2195C98.574 37.6442 99.1103 36.8878 99.4583 35.9503C99.8063 35.0128 99.9803 33.9972 99.9803 32.9034C99.9803 31.8097 99.8063 30.7905 99.4583 29.8459C99.1103 28.9013 98.574 28.1378 97.8496 27.5554C97.1252 26.973 96.2019 26.6818 95.0797 26.6818C93.9576 26.6818 93.0343 26.973 92.3098 27.5554C91.5854 28.1378 91.0492 28.9013 90.7012 29.8459C90.3532 30.7905 90.1792 31.8097 90.1792 32.9034C90.1792 33.9972 90.3532 35.0128 90.7012 35.9503C91.0492 36.8878 91.5854 37.6442 92.3098 38.2195C93.0343 38.7947 93.9576 39.0824 95.0797 39.0824ZM116.645 34.3097V24.6364H119.159V41H116.645V38.2301H116.474C116.091 39.0611 115.494 39.7678 114.685 40.3501C113.875 40.9254 112.852 41.2131 111.616 41.2131C110.594 41.2131 109.685 40.9893 108.889 40.5419C108.094 40.0874 107.469 39.4055 107.014 38.4964C106.56 37.5803 106.332 36.4261 106.332 35.0341V24.6364H108.847V34.8636C108.847 36.0568 109.18 37.0085 109.848 37.7188C110.523 38.429 111.382 38.7841 112.426 38.7841C113.051 38.7841 113.687 38.6243 114.333 38.3047C114.987 37.9851 115.533 37.495 115.974 36.8345C116.421 36.174 116.645 35.3324 116.645 34.3097ZM126.278 31.1562V41H123.764V24.6364H126.193V27.1932H126.406C126.79 26.3622 127.372 25.6946 128.153 25.1903C128.934 24.679 129.943 24.4233 131.179 24.4233C132.287 24.4233 133.256 24.6506 134.087 25.1051C134.918 25.5526 135.564 26.2344 136.026 27.1506C136.488 28.0597 136.719 29.2102 136.719 30.6023V41H134.204V30.7727C134.204 29.4872 133.871 28.4858 133.203 27.7685C132.535 27.044 131.619 26.6818 130.454 26.6818C129.652 26.6818 128.934 26.8558 128.302 27.2038C127.677 27.5518 127.184 28.0597 126.822 28.7273C126.459 29.3949 126.278 30.2045 126.278 31.1562ZM147.492 41.3409C146.128 41.3409 144.924 40.9964 143.88 40.3075C142.836 39.6115 142.02 38.6314 141.43 37.3672C140.841 36.0959 140.546 34.5938 140.546 32.8608C140.546 31.142 140.841 29.6506 141.43 28.3864C142.02 27.1222 142.84 26.1456 143.891 25.4567C144.942 24.7678 146.157 24.4233 147.534 24.4233C148.6 24.4233 149.441 24.6009 150.059 24.956C150.684 25.304 151.16 25.7017 151.487 26.1491C151.821 26.5895 152.08 26.9517 152.265 27.2358H152.478V19.1818H154.992V41H152.563V38.4858H152.265C152.08 38.7841 151.817 39.1605 151.476 39.6151C151.135 40.0625 150.649 40.4638 150.017 40.8189C149.385 41.1669 148.543 41.3409 147.492 41.3409ZM147.833 39.0824C148.841 39.0824 149.694 38.8196 150.39 38.294C151.086 37.7614 151.615 37.0263 151.977 36.0888C152.339 35.1442 152.52 34.054 152.52 32.8182C152.52 31.5966 152.343 30.5277 151.988 29.6115C151.632 28.6882 151.107 27.9709 150.411 27.4595C149.715 26.9411 148.855 26.6818 147.833 26.6818C146.767 26.6818 145.88 26.9553 145.169 27.5021C144.466 28.0419 143.937 28.777 143.582 29.7074C143.234 30.6307 143.06 31.6676 143.06 32.8182C143.06 33.983 143.238 35.0412 143.593 35.9929C143.955 36.9375 144.488 37.6903 145.191 38.2514C145.901 38.8054 146.782 39.0824 147.833 39.0824ZM163.653 41L158.667 24.6364H161.309L164.846 37.1648H165.017L168.511 24.6364H171.196L174.647 37.1222H174.818L178.355 24.6364H180.997L176.011 41H173.539L169.96 28.429H169.704L166.125 41H163.653ZM189.136 41.3835C188.099 41.3835 187.158 41.1882 186.313 40.7976C185.468 40.3999 184.797 39.8281 184.299 39.0824C183.802 38.3295 183.554 37.4205 183.554 36.3551C183.554 35.4176 183.738 34.6577 184.108 34.0753C184.477 33.4858 184.971 33.0241 185.588 32.6903C186.206 32.3565 186.888 32.108 187.634 31.9446C188.387 31.7741 189.143 31.6392 189.903 31.5398C190.897 31.4119 191.703 31.3161 192.321 31.2521C192.946 31.1811 193.401 31.0639 193.685 30.9006C193.976 30.7372 194.122 30.4531 194.122 30.0483V29.9631C194.122 28.9119 193.834 28.0952 193.259 27.5128C192.691 26.9304 191.828 26.6392 190.67 26.6392C189.47 26.6392 188.529 26.902 187.847 27.4276C187.165 27.9531 186.686 28.5142 186.409 29.1108L184.022 28.2585C184.449 27.2642 185.017 26.4901 185.727 25.9361C186.444 25.375 187.225 24.9844 188.071 24.7642C188.923 24.5369 189.761 24.4233 190.585 24.4233C191.11 24.4233 191.714 24.4872 192.396 24.6151C193.085 24.7358 193.749 24.9879 194.388 25.3714C195.034 25.755 195.571 26.3338 195.997 27.108C196.423 27.8821 196.636 28.919 196.636 30.2188V41H194.122V38.7841H193.994C193.824 39.1392 193.539 39.5192 193.142 39.924C192.744 40.3288 192.215 40.6733 191.554 40.9574C190.894 41.2415 190.088 41.3835 189.136 41.3835ZM189.52 39.125C190.514 39.125 191.352 38.9297 192.034 38.5391C192.723 38.1484 193.241 37.6442 193.589 37.0263C193.944 36.4084 194.122 35.7585 194.122 35.0767V32.7756C194.015 32.9034 193.781 33.0206 193.419 33.1271C193.064 33.2266 192.652 33.3153 192.183 33.3935C191.721 33.4645 191.27 33.5284 190.83 33.5852C190.397 33.6349 190.045 33.6776 189.775 33.7131C189.122 33.7983 188.511 33.9368 187.943 34.1286C187.382 34.3132 186.927 34.5937 186.579 34.9702C186.238 35.3395 186.068 35.8437 186.068 36.483C186.068 37.3565 186.391 38.017 187.037 38.4645C187.691 38.9048 188.518 39.125 189.52 39.125ZM214.02 24.6364L207.969 41H205.412L199.361 24.6364H202.088L206.605 37.6761H206.775L211.292 24.6364H214.02ZM223.613 41.3409C222.036 41.3409 220.676 40.9929 219.533 40.2969C218.396 39.5938 217.519 38.6136 216.901 37.3565C216.291 36.0923 215.985 34.6222 215.985 32.946C215.985 31.2699 216.291 29.7926 216.901 28.5142C217.519 27.2287 218.379 26.2273 219.48 25.5099C220.588 24.7855 221.88 24.4233 223.357 24.4233C224.21 24.4233 225.051 24.5653 225.882 24.8494C226.713 25.1335 227.47 25.5952 228.151 26.2344C228.833 26.8665 229.377 27.7045 229.781 28.7486C230.186 29.7926 230.389 31.0781 230.389 32.6051V33.6705H217.775V31.4972H227.832C227.832 30.5739 227.647 29.75 227.278 29.0256C226.916 28.3011 226.397 27.7294 225.722 27.3104C225.055 26.8913 224.267 26.6818 223.357 26.6818C222.356 26.6818 221.49 26.9304 220.758 27.4276C220.034 27.9176 219.476 28.5568 219.085 29.3452C218.695 30.1335 218.499 30.9787 218.499 31.8807V33.3295C218.499 34.5653 218.713 35.6129 219.139 36.4723C219.572 37.3246 220.172 37.9744 220.939 38.4219C221.706 38.8622 222.597 39.0824 223.613 39.0824C224.274 39.0824 224.87 38.9901 225.403 38.8054C225.943 38.6136 226.408 38.3295 226.798 37.9531C227.189 37.5696 227.491 37.0937 227.704 36.5256L230.133 37.2074C229.877 38.0312 229.448 38.7557 228.844 39.3807C228.24 39.9986 227.494 40.4815 226.607 40.8295C225.719 41.1705 224.721 41.3409 223.613 41.3409Z" fill="white"/>
<defs>
<linearGradient id="paint0_linear_26_2" x1="30" y1="0" x2="30" y2="60" gradientUnits="userSpaceOnUse">
<stop stop-color="#1762A7"/>
<stop offset="1" stop-color="#BC3A80"/>
</linearGradient>
<linearGradient id="paint1_linear_26_2" x1="30" y1="18" x2="30" y2="41" gradientUnits="userSpaceOnUse">
<stop stop-color="#1762A7"/>
<stop offset="1" stop-color="#BC3A80"/>
</linearGradient>
</defs>
</svg>
